# xmcd
#
# Track frame offsets: 
#        150
#        2992
#        7881
#        11009
#        15121
#        18865
#        21791
#        24799
#        28992
#        35462
#        38724
#        41276
#        45544
#        47800
#        50646
#        56192
#        61002
#        65845
#        71347
#        74286
#        77251
#        80229
#        83113
#        87308
#        92769
#        95739
#        98597
#        101523
#        105725
#        108946
#        114605
#        117532
#        121711
#        125910
#        131457
#        134552
#        138747
#        142386
#        146137
#        151802
#        157348
#        161555
#        164478
#        167023
#        169909
#        172820
#        177058
#        182728
#        188279
#        193790
#        198726
#        204271
#        208507
#        211432
#        214362
#        219871
#        224066
#        229729
#        235387
#        240893
#        246397
#        251908
#        256103
#        260499
#        266012
#        271514
#        277015
#        281247
#        285600
#        289838
#        295342
#        298599
#        305107
#        308996
#        312005
#        316939
#        321196
#        326702
#        332144
#        336441
#        341945
#        346079
#        349365
#
# Disc length: 4733 seconds
#
# Revision: 1
# Processed by: cddbd v1.5.2PL0 Copyright (c) Steve Scherf et al.
# Submitted via: ExactAudioCopyFreeDBPlugin 1.0
#
DISCID=f0127b53
DTITLE=Brad Leftwich - Old-Time Fiddle Round Peak Style (of Tommy Jarr
DTITLE=ell)
DYEAR=2011
DGENRE=Old-Time Music
TTITLE0=Baby-o (aEAE)
TTITLE1=Big-Eyed Rabbit
TTITLE2=The Blackest crow
TTITLE3=Breaking Up Christmas
TTITLE4=Chilly winds
TTITLE5=Cluck Old Hen
TTITLE6=Cotton-Eyed Joe
TTITLE7=Cripple Creek
TTITLE8=Darling Nellie Grey
TTITLE9=Fire on the mountain
TTITLE10=Granny, will your dog bite ?
TTITLE11=Greasy string
TTITLE12=Groundhog
TTITLE13=Ida Red
TTITLE14=John Brown's Dream
TTITLE15=John Hardy
TTITLE16=John Henry
TTITLE17=June Apple
TTITLE18=Kitty Clyde
TTITLE19=Let me fall
TTITLE20=Little Maggie
TTITLE21=Lonesome Road Blues
TTITLE22=Old Bunch of Keys
TTITLE23=Old Joe Clark
TTITLE24=Police
TTITLE25=Poor Ellen Smith
TTITLE26=Pretty Little Girl
TTITLE27=Pretty Polly
TTITLE28=Rainbow Sign
TTITLE29=Round Town Gals
TTITLE30=Ruben
TTITLE31=Shortening Bread
TTITLE32=Sourwood mountain
TTITLE33=Stay All Night
TTITLE34=Sweet Sunny South
TTITLE35=The Tater Patch Tune
TTITLE36=Train on the island
TTITLE37=When Sorrows Encompass Me Round
TTITLE38=The Drunken Hiccups (aEAc#)
TTITLE39=Arkansas Traveler (aDAE)
TTITLE40=Backstep Cindy
TTITLE41="Old-Time" Backstep Cindy
TTITLE42=The Bravest Cowboy
TTITLE43=Cider (Stillhouse)
TTITLE44=Ducks on the Mill Pond
TTITLE45=Fall On My Knees
TTITLE46=Fisher's Hornpipe
TTITLE47=Forky Deer
TTITLE48=Fortune
TTITLE49=The Joke on the Puppy
TTITLE50=Mississipi Sawyer
TTITLE51=New River Train
TTITLE52=Old Jimmy Sutton
TTITLE53=Old Molly Hare
TTITLE54=Peek-a-Boo (Green Gravel)
TTITLE55=Plly Put the Kettle On
TTITLE56=Richmond Cottillion
TTITLE57=Ricket's Hornpipe
TTITLE58=Rochester Schottische (Walking in the Parlor)
TTITLE59=Rockingham Cindy
TTITLE60=Sally Ann
TTITLE61="Old-Time" Sally Ann
TTITLE62=Say, Darling, Say
TTITLE63=Soldier's Joy
TTITLE64=Sugar Hill
TTITLE65=Sussanna Gal (Western Country)
TTITLE66=Tempie
TTITLE67=They Say It is Sinful To Flirt
TTITLE68=The Wreck othe the Old 97
TTITLE69=The Yellow Rose Of Texas
TTITLE70=Boll Weevil (dDAD)
TTITLE71=Bonaparte's Retreat
TTITLE72=Ryland Spencer
TTITLE73=Frankie Baker (aDAD)
TTITLE74=Tumblin Gap
TTITLE75=Flatwoods (gDAD)
TTITLE76=Cackling Hen (gDAE)
TTITLE77=Dance All Night wit a Bottle in Your Hand
TTITLE78=Devil in the Strawstack
TTITLE79=Old Buck (Paddy on the runpike)
TTITLE80=Piney Woods Gal
TTITLE81=Sail Away Ladies
TTITLE82=Walking In My Sleep
EXTD=
EXTT0=
EXTT1=
EXTT2=
EXTT3=
EXTT4=
EXTT5=
EXTT6=
EXTT7=
EXTT8=
EXTT9=
EXTT10=
EXTT11=
EXTT12=
EXTT13=
EXTT14=
EXTT15=
EXTT16=
EXTT17=
EXTT18=
EXTT19=
EXTT20=
EXTT21=
EXTT22=
EXTT23=
EXTT24=
EXTT25=
EXTT26=
EXTT27=
EXTT28=
EXTT29=
EXTT30=
EXTT31=
EXTT32=
EXTT33=
EXTT34=
EXTT35=
EXTT36=
EXTT37=
EXTT38=
EXTT39=
EXTT40=
EXTT41=
EXTT42=
EXTT43=
EXTT44=
EXTT45=
EXTT46=
EXTT47=
EXTT48=
EXTT49=
EXTT50=
EXTT51=
EXTT52=
EXTT53=
EXTT54=
EXTT55=
EXTT56=
EXTT57=
EXTT58=
EXTT59=
EXTT60=
EXTT61=
EXTT62=
EXTT63=
EXTT64=
EXTT65=
EXTT66=
EXTT67=
EXTT68=
EXTT69=
EXTT70=
EXTT71=
EXTT72=
EXTT73=
EXTT74=
EXTT75=
EXTT76=
EXTT77=
EXTT78=
EXTT79=
EXTT80=
EXTT81=
EXTT82=
PLAYORDER=
